<svg xmlns="http://www.w3.org/2000/svg" width="32" height="32" preserveAspectRatio="xMidYMid meet" version="1.0" viewBox="0 0 24 24"><g fill="#000" stroke="none"><path d="M87 189 c-19 -22 -27 -42 -27 -69 0 -22 -4 -42 -10 -45 -27 -16 -3 -25 70 -25 73 0 97 9 70 25 -5 3 -10 23 -10 45 0 27 -8 47 -27 69 -15 17 -30 31 -33 31 -3 0 -18 -14 -33 -31z m67 -15 c9 -8 16 -32 16 -53 0 -20 5 -42 12 -49 9 -9 -4 -12 -62 -12 -58 0 -71 3 -62 12 7 7 12 29 12 49 0 41 21 69 50 69 10 0 26 -7 34 -16z" transform="translate(0.000000,24.000000) scale(0.100000,-0.100000)"/><path d="M108 28 c9 -9 15 -9 24 0 9 9 7 12 -12 12 -19 0 -21 -3 -12 -12z" transform="translate(0.000000,24.000000) scale(0.100000,-0.100000)"/></g></svg>